<?xml version="1.0" standalone="no"?>
<!DOCTYPE svg PUBLIC "-//W3C//DTD SVG 1.1//EN" "http://www.w3.org/Graphics/SVG/1.1/DTD/svg11.dtd" >
<svg>
<metadata>
Created by FontForge 20090914 at Thu Jul 18 18:50:56 2013
 By www-data
</metadata>
<defs>
<font id="Laddergeheimschrift" horiz-adv-x="2253" >
  <font-face 
    font-family="Laddergeheimschrift"
    font-weight="400"
    font-stretch="normal"
    units-per-em="2048"
    panose-1="2 11 6 3 5 3 2 2 2 4"
    ascent="1638"
    descent="-410"
    x-height="1711"
    cap-height="2282"
    bbox="-0.00195312 -253.001 2097 2282"
    underline-thickness="0"
    underline-position="0"
    unicode-range="U+0020-U+00A4"
  />
<missing-glyph horiz-adv-x="2048" 
d="M106 41v205h205v-205c0 -70.667 -13.667 -133 -41 -187c-40 -50.667 -83.667 -86.334 -131 -107.001l-49 74c36.667 22 64 46.667 82 74c22 28.667 33 77.334 33 146.001h-99z" />
    <glyph glyph-name=".notdef" horiz-adv-x="2048" 
d="M106 41v205h205v-205c0 -70.667 -13.667 -133 -41 -187c-40 -50.667 -83.667 -86.334 -131 -107.001l-49 74c36.667 22 64 46.667 82 74c22 28.667 33 77.334 33 146.001h-99z" />
    <glyph glyph-name="space" unicode=" " horiz-adv-x="1600" 
 />
    <glyph glyph-name="exclam" unicode="!" horiz-adv-x="232" 
d="M8 0v205h205v-205h-205zM49 360l-49 779v327h221v-327l-49 -779h-123z" />
    <glyph glyph-name="quotedbl" unicode="&#x22;" horiz-adv-x="558" 
d="M377 1204l-49 279v237h204v-237l-49 -279h-106zM49 1204l-49 279v237h205v-237l-49 -279h-107z" />
    <glyph glyph-name="numbersign" unicode="#" horiz-adv-x="1144" 
d="M344 573h320l73 369h-319zM82 0l82 426h-164v147h197l73 369h-270v148h303l82 426h156l-90 -426h311l90 426h147l-81 -426h172v-148h-205l-74 -369h279v-147h-312l-82 -426h-155l90 426h-312l-90 -426h-147z" />
    <glyph glyph-name="dollar" unicode="$" horiz-adv-x="1015" 
d="M541 139c71.333 8.66699 128.667 38.666 172 89.999c43.333 50.667 65 116.334 65 197.001c0 58.667 -13.667 110.667 -41 156c-28.667 36 -94 71.333 -196 106v-549zM434.001 1384c-70.667 -8 -125.333 -35 -164 -81c-43.333 -53.333 -65 -108 -65 -164
c0 -52 19 -101.333 57 -148c30.667 -46.667 88 -82 172 -106v499zM434.002 -187.001v180.001c-45.333 4 -86.5 11.333 -123.5 22s-69.5 22 -97.5 34c-64 36.667 -113 83 -147 139c-44 70.667 -66 150 -66 238l180 33c8 -93.333 32.667 -164.333 74 -213
c54 -64.667 114 -100.334 180 -107.001v574c-37.333 8 -74.666 19.833 -111.999 35.5s-76.333 33.834 -117 54.501c-56.667 32 -100.334 75.667 -131.001 131c-32.667 56 -49 121.333 -49 196c0 123.333 46.333 227.333 139 312c57.333 49.333 147.333 82 270 98v82h107v-82
c115.333 -18 197 -50.667 245 -98c82.667 -66.667 132 -157 148 -271l-189 -24c-7.33301 64 -29 118.667 -65 164c-16.667 16 -37 31.167 -61 45.5s-50 23.5 -78 27.5v-516c92 -24.667 152 -43.667 180 -57c28 -12.667 53 -26.834 75 -42.501l64 -47.5
c28 -28.667 55.333 -69.667 82 -123c16.667 -51.333 25 -103.333 25 -156c0 -120 -38.333 -226.333 -115 -319c-80 -80 -183.667 -123.333 -311 -130v-180h-107z" />
    <glyph glyph-name="percent" unicode="%" horiz-adv-x="2201" 
d="M1679 868c-57.333 0 -106.333 -24.3311 -147 -72.998c-44 -62.667 -66 -158.334 -66 -287.001c0 -122.667 22 -210 66 -262c38 -54.667 87 -82 147 -82c67.333 0 116.666 27.333 147.999 82c43.333 51.333 65 144 65 278c0 119.333 -21.667 209.666 -65 270.999
c-41.333 48.667 -90.666 73 -147.999 73v0zM1262 532.002c0 140.667 35.332 258.333 105.999 353c66 98 167 147 303 147c130.667 0 231.667 -43.667 303 -131c82 -82 123 -210.333 123 -385c0 -166.667 -41 -295 -123 -385c-87.333 -87.333 -188.333 -131 -303 -131
c-117.333 0 -215.666 43.667 -294.999 131c-76 93.333 -114 227 -114 401v0zM417.999 0.000976562l1065 2064h196l-1065 -2064h-196zM417.999 1892c-63.333 0 -115.333 -24.334 -156 -73.001c-38 -58 -57 -153.667 -57 -287c0 -123.333 21.667 -210.666 65 -261.999
c32.667 -49.333 82 -74 148 -74c56.667 0 105.667 24.667 147 74c38.667 46 58 141.333 58 286c0 128 -19.333 215.667 -58 263c-41.333 48.667 -90.333 73 -147 73v0zM-0.000976562 1556c0 145.333 35.332 265.667 105.999 361c66 98 167.333 147 304 147
c117.333 0 218.333 -46.333 303 -139c82 -82 123 -210.333 123 -385c0 -161.333 -41 -287 -123 -377c-84.667 -92.667 -185.667 -139 -303 -139c-109.333 0 -207.666 43.667 -294.999 131c-76.667 84 -115 217.667 -115 401v0z" />
    <glyph glyph-name="ampersand" unicode="&#x26;" horiz-adv-x="1290" 
d="M770 352l-327.999 410c-104.667 -70.667 -170 -125.334 -196 -164.001c-38.667 -46.667 -58 -95.667 -58 -147c0 -60 24.667 -123 74 -189c44.667 -60 113 -90 205 -90c51.333 0 106 16.333 164 49c63.333 36.667 109.666 80.334 138.999 131.001v0zM516.001 975
c82.667 45.333 132.001 83.666 148.001 114.999c27.333 45.333 41 83.333 41 114c0 48.667 -16.667 89.667 -50 123c-32 32.667 -73 49 -123 49c-43.333 0 -81.333 -16.333 -114 -49c-32.667 -24 -49 -62.333 -49 -115c0 -27.333 5.33301 -49 16 -65
c9.33301 -31.333 25.666 -58.666 48.999 -81.999zM885.002 205c-66 -66 -131.668 -115.333 -197.001 -148c-76 -32.667 -152.333 -49 -229 -49c-156 0 -273.667 52 -353 156c-70.667 79.333 -106 169.333 -106 270s27.333 182.667 82 246
c54 70.667 141.333 136.334 262 197.001c-32.667 36 -59.667 70.167 -81 102.5s-38 60.833 -50 85.5c-22 36 -33 79.667 -33 131c0 90 35.667 166.333 107 229c64.667 66 152 99 262 99c98 0 177 -30 237 -90c66 -66 99 -140 99 -222c0 -144 -93 -264 -279 -360l262 -328
c33.333 59.333 58 125 74 197l188 -33c-33.333 -136.667 -77 -243 -131 -319c64.667 -88.667 141.334 -165.334 230.001 -230.001l-123 -139c-79.333 52 -153 120.333 -221 205v0z" />
    <glyph glyph-name="parenleft" unicode="(" horiz-adv-x="507" 
d="M352 -122c-49.333 61.333 -94.832 128.331 -136.499 200.998s-80.834 150 -117.501 232c-65.333 172.667 -98 347.667 -98 525c0 157.333 24.667 310 74 458c55.333 160.667 148 327.334 278 500.001h131l-104 -179c-28 -49.333 -48 -88 -60 -116
c-40 -88.667 -72.667 -184.334 -98 -287.001c-12 -61.333 -21.833 -124.166 -29.5 -188.499s-11.5 -126.833 -11.5 -187.5c0 -323.333 101 -642.666 303 -957.999h-131z" />
    <glyph glyph-name="parenright" unicode=")" horiz-adv-x="507" 
d="M123 -187l-122.999 -0.00195312c196.667 317.333 295 636.333 295 957c0 116.667 -13.667 242.334 -41 377.001c-27.333 106.667 -60 202.334 -98 287.001c-12.667 28 -31.667 66.667 -57 116s-58.333 109 -99 179h123c127.333 -160.667 220 -327.334 278 -500.001
c54.667 -140 82 -293 82 -459c0 -90 -9.66699 -178 -29 -264s-45 -170 -77 -252c-33.333 -86 -71.833 -165.667 -115.5 -239s-89.834 -140.666 -138.501 -201.999v0z" />
    <glyph glyph-name="asterisk" unicode="*" horiz-adv-x="687" 
d="M0 1024l40.998 146.998l138.5 -55.5c39.667 -16.333 69.834 -30.5 90.501 -42.5c-4 61.333 -7.66699 112.5 -11 153.5s-5 71.833 -5 92.5h147c-4 -33.333 -7 -70.5 -9 -111.5s-7 -85.833 -15 -134.5c60 30 139 62.667 237 98l41 -147c-81.333 -24.667 -163 -41 -245 -49
l73 -77c28.667 -30.667 61.667 -70.667 99 -120l-123 -82c-16.667 28.667 -36.667 60 -60 94s-47 73.667 -71 119c-24.667 -45.333 -48.667 -86.166 -72 -122.499l-59 -90.5l-123 82l101 123c26.667 32.667 50.334 57.334 71.001 74.001c-45.333 8 -88.5 16.167 -129.5 24.5
l-116.5 24.5v0z" />
    <glyph glyph-name="plus" unicode="+" horiz-adv-x="1015" 
d="M393 0v401h-393v172h393v394h172v-394h402v-172h-402v-401h-172z" />
    <glyph glyph-name="comma" unicode="," horiz-adv-x="215" 
d="M41 1458l-41 271v245h205v-245l-49 -271h-115z" />
    <glyph glyph-name="hyphen" unicode="-" horiz-adv-x="576" 
d="M0 631v180h549v-180h-549z" />
    <glyph glyph-name="period" unicode="." horiz-adv-x="283" 
d="M0 0v270h270v-270h-270z" />
    <glyph glyph-name="slash" unicode="/" horiz-adv-x="593" 
d="M0 0l426 1516h139l-426 -1516h-139z" />
    <glyph glyph-name="zero" unicode="0" horiz-adv-x="997" 
d="M180 745c0 -239.333 30 -397.666 90 -474.999c48.667 -82 117 -123 205 -123c87.333 0 155.666 41 204.999 123c60 77.333 90 235.666 90 474.999c0 236 -30 397.333 -90 484c-49.333 82 -117.666 123 -204.999 123c-78 0 -143.333 -35.667 -196 -107
c-66 -90 -99 -256.667 -99 -500v0zM0 745c0 181.333 16.334 320.668 49.001 418.001c43.333 112.667 98 194.667 164 246c69.333 60 156.666 90 261.999 90c80 0 148.333 -16.333 205 -49c58 -30 107 -76.333 147 -139c44 -62.667 74.333 -133.667 91 -213
c21.333 -80 32 -197.667 32 -353c0 -176 -16.333 -312.333 -49 -409c-31.333 -101.333 -83.333 -183.333 -156 -246c-77.333 -60 -167.333 -90 -270 -90c-144.667 0 -256.667 52 -336 156c-92.667 117.333 -139 313.666 -139 588.999v0z" />
    <glyph glyph-name="one" unicode="1" horiz-adv-x="568" 
d="M541 0h-181v1147c-50 -42 -107.333 -83 -172 -123c-81.333 -46 -144 -76 -188 -90v172c104.667 52 192 109.333 262 172c80.667 71.333 132.667 137 156 197h123v-1475z" />
    <glyph glyph-name="two" unicode="2" horiz-adv-x="1015" 
d="M967 172l0.000976562 -172.002h-967c0 20 0.666992 40.333 2 61s6 41.334 14 62.001c25.333 66 66.333 131.333 123 196c45.333 60.667 124.666 134.667 237.999 222c151.333 128 257.666 231.667 318.999 311c54.667 69.333 82 143 82 221
c0 71.333 -24.333 131.333 -73 180c-49.333 49.333 -115 74 -197 74c-78.667 0 -149.667 -27.333 -213 -82c-49.333 -49.333 -74 -120.333 -74 -213l-188 17c8 138.667 54.333 242.334 139 311.001c84.667 76.667 196.667 115 336 115c142 0 254 -41 336 -123
c82 -74 123 -169.667 123 -287c0 -50 -13.667 -107.333 -41 -172c-15.333 -50 -53.666 -110 -114.999 -180c-56.667 -65.333 -149.667 -150 -279 -254c-116 -98.667 -184 -161.667 -204 -189c-24.667 -24 -52 -56.667 -82 -98h721z" />
    <glyph glyph-name="three" unicode="3" horiz-adv-x="1005" 
d="M0 410l180 23.999c16.667 -100 49.667 -173.667 99 -221c60.667 -44 123.334 -66 188.001 -66c82 0 153 30.333 213 91c60 60 90 133.667 90 221c0 71.333 -27.333 139.666 -82 204.999c-56.667 48.667 -127.667 73 -213 73c-16.667 0 -35.334 -0.666992 -56.001 -2
s-43 -6 -67 -14l17 156h19h13c83.333 0 151.666 19 204.999 57c60 36.667 90 99.334 90 188.001c0 72.667 -21.667 127.334 -65 164.001c-44 44 -101.333 66 -172 66s-128 -22 -172 -66c-52.667 -52.667 -82.667 -118 -90 -196l-181 32c16.667 112.667 66 205.667 148 279
c82 65.333 180.333 98 295 98c74 0 147.667 -16.333 221 -49c70 -44.667 122 -93.667 156 -147c32.667 -59.333 49 -122.333 49 -189c0 -56.667 -16.333 -114 -49 -172c-30 -44.667 -82 -85.667 -156 -123c86.667 -16 155 -57 205 -123c48.667 -64.667 73 -143.667 73 -237
c0 -126 -46.333 -235.333 -139 -328c-95.333 -87.333 -212.666 -131 -351.999 -131c-126 -0 -235.333 38.333 -328 115c-84.667 74.667 -131 173 -139 295v0z" />
    <glyph glyph-name="four" unicode="4" horiz-adv-x="1058" 
d="M631 516v664l-459 -664h459zM631 0v352h-631v164l664 950h147v-950h197v-164h-197v-352h-180z" />
    <glyph glyph-name="five" unicode="5" horiz-adv-x="1015" 
d="M0 410l187.999 16c9.33301 -97.333 42.333 -165.666 99 -204.999c49.333 -49.333 109.333 -74 180 -74c90 0 163.667 33 221 99c60 68 90 155.333 90 262c0 98 -30 177 -90 237c-52.667 60.667 -126.334 91 -221.001 91c-69.333 0 -121.333 -13.667 -156 -41
c-53.333 -27.333 -91.333 -60.333 -114 -99l-164 25l139 754h729v-172h-590l-73 -394c92.667 60 185.334 90 278.001 90c119.333 0 226 -46.333 320 -139c87.333 -80 131 -192 131 -336c0 -137.333 -38.333 -252 -115 -344c-88 -120 -216.333 -180 -385 -180
c-126 0 -235.333 38.333 -328 115c-85.333 75.333 -131.666 173.666 -138.999 294.999z" />
    <glyph glyph-name="six" unicode="6" horiz-adv-x="1015" 
d="M205 500c0 -57.333 13.6689 -117.668 41.002 -181.001c24.667 -59.333 60 -100 106 -122c49.333 -33.333 98.666 -50 147.999 -50c79.333 0 144.666 30.333 195.999 91c54.667 60.667 82 145.334 82 254.001c0 104 -27.333 183 -82 237c-52 60 -117.333 90 -196 90
c-82 0 -153 -30 -213 -90c-54.667 -54 -82 -130.333 -82 -229v0zM942.002 1130l-179.999 -15.998c-16.667 70.667 -41.334 122.667 -74.001 156c-39.333 54.667 -96.666 82 -171.999 82c-62.667 0 -114.667 -16.333 -156 -49c-50 -36 -93.667 -96.333 -131 -181
c-30 -76.667 -49 -191.334 -57 -344.001c51.333 69.333 106 118.666 164 147.999c66 32.667 131.333 49 196 49c122.667 0 224 -43.667 304 -131c87.333 -87.333 131 -202 131 -344c0 -45.333 -5.66699 -88.833 -17 -130.5s-25 -82.834 -41 -123.501
c-38.667 -77.333 -93.334 -137.333 -164.001 -180c-78.667 -44 -157.667 -66 -237 -66c-145.333 0 -268.333 54.667 -369 164c-92.667 108.667 -139 291.667 -139 549c0 289.333 52 494 156 614c89.333 114.667 212 172 368 172c111.333 0 204.333 -32.667 279 -98
c76.667 -69.333 123 -159.666 139 -270.999z" />
    <glyph glyph-name="seven" unicode="7" horiz-adv-x="989" 
d="M0 1278v172.001h942v-139c-95.333 -112.667 -185.333 -246.667 -270 -402c-50 -82 -92 -165.667 -126 -251s-63 -171 -87 -257c-42 -124 -66.667 -257.667 -74 -401h-180c0 105.333 21.667 244.666 65 417.999c20 82 46.167 162.167 78.5 240.5
s69.166 156.5 110.499 234.5c40.667 73.333 81.834 142.333 123.501 207s85.167 124 130.5 178h-713z" />
    <glyph glyph-name="eight" unicode="8" horiz-adv-x="1015" 
d="M180 451c0 -52 13.667 -101.333 41 -148c27.333 -54.667 63 -93 107 -115c55.333 -27.333 107 -41 155 -41c87.333 0 158.333 27.333 213 82s82 125.667 82 213c0 88 -27.333 159 -82 213c-59.333 60 -133 90 -221 90c-83.333 0 -154.333 -30 -213 -90
c-54.667 -54.667 -82 -122.667 -82 -204v0zM238 1122c0 -66 21.667 -120.666 65 -163.999s103.333 -65 180 -65c71.333 0 128.666 21.667 171.999 65c44 44 66 96 66 156c0 68 -24.667 122.667 -74 164c-41.333 49.333 -98.666 74 -171.999 74c-65.333 0 -120 -22 -164 -66
c-48.667 -48.667 -73 -103.334 -73 -164.001zM279 819.001c-72 24 -129.666 62.333 -172.999 115c-32.667 58 -49 120.667 -49 188c0 106.667 38.333 194 115 262c76.667 76.667 177.667 115 303 115c123.333 0 227 -38.333 311 -115c76.667 -76 115 -166 115 -270
c0 -72 -16.333 -132 -49 -180c-46.667 -56 -101.334 -94.333 -164.001 -115c83.333 -22.667 151.666 -69 204.999 -139c49.333 -66.667 74 -146 74 -238c0 -123.333 -46.667 -227 -140 -311c-80 -87.333 -194.667 -131 -344 -131c-147.333 0 -264.666 43.667 -351.999 131
c-87.333 79.333 -131 186 -131 320c0 88 22 167 66 237c46 62 117 105.667 213 131v0z" />
    <glyph glyph-name="nine" unicode="9" horiz-adv-x="1005" 
d="M762 1008c0 108.667 -27.332 190.334 -81.999 245.001c-57.333 66 -123 99 -197 99c-84 0 -155 -33 -213 -99c-60 -68.667 -90 -153.334 -90 -254.001c0 -92.667 30 -169 90 -229c51.333 -60 119.666 -90 204.999 -90c84.667 0 153 30 205 90
c54.667 54.667 82 134 82 238zM25.001 360l172.005 17c16 -84 43.333 -141.333 82 -172c37.333 -38.667 91.666 -58 162.999 -58c46 0 92.667 13.667 140 41c45.333 22.667 80.666 55.667 105.999 99c28 46 50 103.333 66 172c16 72.667 24 146.334 24 221.001v13v20
c-28 -49.333 -77 -96 -147 -140c-59.333 -32.667 -125 -49 -197 -49c-128 0 -231.667 43.667 -311 131c-82 90 -123 204.667 -123 344c0 153.333 43.667 273.666 131 360.999c84 92.667 193.333 139 328 139c97.333 0 184.666 -27.333 261.999 -82
c78.667 -52.667 138.667 -123.667 180 -213c38 -91.333 57 -230.666 57 -417.999c0 -196 -19 -343.333 -57 -442c-41.333 -114.667 -101.333 -199.334 -180 -254.001c-86.667 -60 -182.334 -90 -287.001 -90c-112 0 -204.667 32.667 -278 98
c-70.667 54.667 -114.334 142 -131.001 262v0z" />
    <glyph glyph-name="colon" unicode=":" horiz-adv-x="215" 
d="M0 0v205h205v-205h-205zM0 860v205h205v-205h-205z" />
    <glyph glyph-name="semicolon" unicode=";" horiz-adv-x="223" 
d="M8 41v205h205v-205c0 -84 -13.667 -146.333 -41 -187c-30 -48 -71 -83.667 -123 -107l-49 74c42.667 32 70 56.667 82 74c11.333 24 22.333 72.667 33 146h-107zM8 893v205h205v-205h-205z" />
    <glyph glyph-name="less" unicode="&#x3c;" horiz-adv-x="1015" 
d="M0 606v164l967 410v-172l-770 -320l770 -319v-181z" />
    <glyph glyph-name="equal" unicode="=" horiz-adv-x="1015" 
d="M967 254h-967v164h967v-164zM967 696h-967v172h967v-172z" />
    <glyph glyph-name="greater" unicode="&#x3e;" horiz-adv-x="1015" 
d="M967 672l-967 -418v180l770 320l-770 311v180l967 -409v-164z" />
    <glyph glyph-name="question" unicode="?" horiz-adv-x="989" 
d="M369 0v205h204v-205h-204zM377 360l0.00195312 31.499v26.5c0 76.667 11 136.667 33 180c8 20 16.667 40 26 60s22.333 38.333 39 55c12 16 29.667 34.5 53 55.5s49.333 46.167 78 75.5c61.333 46 102.333 89.667 123 131c8 16 15.5 32.5 22.5 49.5
s10.5 35.833 10.5 56.5c0 64.667 -27.333 125 -82 181c-54 54 -122.333 81 -205 81c-76.667 0 -139.334 -24.333 -188.001 -73c-54 -45.333 -89.667 -119 -107 -221l-180 16c15.333 138.667 64.333 245 147 319c78.667 71.333 188 107 328 107
c138.667 0 250.667 -38.333 336 -115c87.333 -80 131 -175.333 131 -286c0 -61.333 -13.667 -118.666 -41 -171.999c-35.333 -62 -95.333 -127.667 -180 -197c-28.667 -28.667 -53 -52 -73 -70s-34 -33 -42 -45c-20.667 -30.667 -34.334 -60.667 -41.001 -90
c-4 -16.667 -6.66699 -37.667 -8 -63s-4 -56.333 -8 -93h-172z" />
    <glyph glyph-name="at" unicode="@" horiz-adv-x="1986" 
d="M565 737c0 -98 22 -168.997 66 -212.997c40.667 -48.667 89.667 -73 147 -73c40 0 78.333 10.667 115 32c40.667 24.667 81.667 57.667 123 99c36 45.333 66 102.666 90 171.999c22 59.333 33 124.666 33 195.999c0 98 -22 169 -66 213c-41.333 49.333 -96 74 -164 74
c-46 0 -87 -11 -123 -33c-30.667 -15.333 -66 -48 -106 -98c-16.667 -24.667 -32.5 -51.834 -47.5 -81.501s-26.5 -62.5 -34.5 -98.5c-22 -58.667 -33 -121.667 -33 -189zM1049 467.003c-40.667 -48.667 -89.9951 -89.6689 -147.995 -123.002
c-54 -27.333 -108.667 -41 -164 -41c-57.333 0 -114.666 16.333 -171.999 49c-52.667 30 -96.334 84.667 -131.001 164c-38 60.667 -57 140 -57 238c0 114.667 27.333 218.334 82 311.001c58 108 126.333 190 205 246c90 54.667 166.333 82 229 82
c56.667 0 114 -16.667 172 -50c24 -16 47.667 -35 71 -57s43.333 -49.333 60 -82l41 156h172l-139 -672c-12.667 -45.333 -21.334 -81.666 -26.001 -108.999s-7 -43 -7 -47c0 -16 8.33301 -32.333 25 -49c10.667 -10.667 27 -16 49 -16c30.667 0 77 21.667 139 65
c67.333 45.333 127.333 116.333 180 213c44 97.333 66 190.333 66 279c0 104 -30 207.667 -90 311c-64.667 99.333 -149.334 176 -254.001 230c-121.333 60 -247 90 -377 90c-148.667 0 -290.667 -38.333 -426 -115c-62 -37.333 -118.667 -81.166 -170 -131.499
s-93 -110.166 -125 -179.499c-71.333 -134 -107 -281.667 -107 -443c0 -168.667 35.667 -307.667 107 -417c58.667 -112.667 159.667 -200.334 303 -263.001c131.333 -54 281.666 -81 450.999 -81c180 0 324.667 27 434 81c61.333 32.667 114.5 66.5 159.5 101.5
s81.833 75.167 110.5 120.5h180c-33.333 -76.667 -93.333 -150.667 -180 -222c-41.333 -32.667 -86.5 -64.167 -135.5 -94.5s-102.167 -55.833 -159.5 -76.5c-101.333 -38 -237.666 -57 -408.999 -57c-156.667 0 -293.334 19 -410.001 57c-118 32 -224.333 86.333 -319 163
c-90.667 80.667 -156.334 171 -197.001 271c-54.667 117.333 -82 251 -82 401c0 163.333 32.667 319 98 467c81.333 178.667 196 318 344 418c139.333 92.667 322.333 139 549 139c163.333 0 311 -32.667 443 -98c130 -66 233.667 -167 311 -303
c65.333 -116 98 -241.667 98 -377c0 -193.333 -68.333 -365.333 -205 -516c-122.667 -131.333 -256.334 -197 -401.001 -197c-38 0 -73.667 5.33301 -107 16c-30 15.333 -51.667 37.333 -65 66c-10.667 21.333 -16 48.666 -16 81.999v0z" />
    <glyph glyph-name="A" unicode="A" 
d="M0 904h1956v-104h-1956v104z" />
    <glyph glyph-name="B" unicode="B" 
d="M0 1611h1956v-104h-1956v104zM0 658h1956v-104h-1956v104z" />
    <glyph glyph-name="C" unicode="C" 
d="M0 2122h1956v-99h-1956v99zM0 1488h1956v-104h-1956v104zM0 535h1956v-104h-1956v104z" />
    <glyph glyph-name="D" unicode="D" 
d="M0 1937h1956v-98h-1956v98zM0 1624h1956v-105h-1956v105zM0 664h1956v-98h-1956v98zM0 351h1956v-105h-1956v105z" />
    <glyph glyph-name="E" unicode="E" 
d="M0 1937h1956v-98h-1956v98zM0 1624h1956v-105h-1956v105zM0 984h1956v-98h-1956v98zM0 664h1956v-98h-1956v98zM0 351h1956v-105h-1956v105z" />
    <glyph glyph-name="F" unicode="F" 
d="M252 1827h-252v104h252v351h117v-351h1587v-104h-1587v-1827h-117v1827z" />
    <glyph glyph-name="G" unicode="G" 
d="M701 658v1169h-701v104h701v351h123v-351h1132v-104h-1132v-1169h1132v-104h-1132v-554h-123v554h-701v104h701z" />
    <glyph glyph-name="H" unicode="H" 
d="M1611 1292v215h-1611v104h1611v216h-1611v104h1611v351h117v-351h228v-104h-228v-216h228v-104h-228v-215h228v-99h-228v-1193h-117v1193h-1611v99h1611z" />
    <glyph glyph-name="I" unicode="I" 
d="M1156 338v216h-1156v104h1156v215h-1156v105h1156v849h-1156v104h1156v351h117v-351h683v-104h-683v-849h683v-105h-683v-215h683v-104h-683v-216h683v-98h-683v-240h-117v240h-1156v98h1156z" />
    <glyph glyph-name="J" unicode="J" horiz-adv-x="800" 
d="M0 0v2282h117v-2282h-117zM449 0v2282h123v-2282h-123z" />
    <glyph glyph-name="K" unicode="K" 
d="M701 338v216h-701v104h701v215h-701v105h701v215h-701v99h701v215h-701v104h701v216h-701v104h701v351h123v-351h1132v-104h-1132v-216h1132v-104h-1132v-215h1132v-99h-1132v-215h1132v-105h-1132v-215h1132v-104h-1132v-216h1132v-98h-1132v-240h-123v240h-701v98h701z
" />
    <glyph glyph-name="L" unicode="L" 
d="M252 338v1489h-252v104h252v351h117v-351h1242v351h117v-351h228v-104h-228v-1489h228v-98h-228v-240h-117v240h-1242v-240h-117v240h-252v98h252zM1611 338v1489h-1242v-1489h1242z" />
    <glyph glyph-name="M" unicode="M" 
d="M252 338v1169h-252v104h252v216h-252v104h252v351h117v-351h332v351h123v-351h1132v-104h-1132v-216h1132v-104h-1132v-1169h1132v-98h-1132v-240h-123v240h-332v-240h-117v240h-252v98h252zM701 338v1169h-332v-1169h332zM701 1827h-332v-216h332v216z" />
    <glyph glyph-name="N" unicode="N" 
d="M701 338v216h-701v104h701v215h-701v105h701v215h-701v99h701v990h123v-990h332v990h117v-990h683v-99h-683v-215h683v-105h-683v-215h683v-104h-683v-216h683v-98h-683v-240h-117v240h-332v-240h-123v240h-701v98h701zM1156 338v216h-332v-216h332zM1156 658v215h-332
v-215h332zM1156 978v215h-332v-215h332z" />
    <glyph glyph-name="O" unicode="O" 
d="M252 338v535h-252v105h252v215h-252v99h252v215h-252v104h252v216h-252v104h252v351h117v-351h787v351h117v-351h683v-104h-683v-216h683v-104h-683v-215h683v-99h-683v-215h683v-105h-683v-535h683v-98h-683v-240h-117v240h-787v-240h-117v240h-252v98h252zM1156 338
v535h-787v-535h787zM1156 978v215h-787v-215h787zM1156 1292v215h-787v-215h787zM1156 1611v216h-787v-216h787z" />
    <glyph glyph-name="P" unicode="P" 
d="M1611 240h-787v-240h-123v240h-332v-240h-117v240h-252v98h252v1944h117v-1944h332v1944h123v-1944h787v1944h117v-1944h228v-98h-228v-240h-117v240z" />
    <glyph glyph-name="Q" unicode="Q" 
d="M252 1611v216h-252v104h252v351h117v-351h332v351h123v-351h332v351h117v-351h683v-104h-683v-216h683v-104h-683v-1507h-117v1507h-332v-1507h-123v1507h-332v-1507h-117v1507h-252v104h252zM701 1611v216h-332v-216h332zM1156 1611v216h-332v-216h332z" />
    <glyph glyph-name="R" unicode="R" 
d="M701 338v216h-701v104h701v215h-701v105h701v1304h123v-1304h332v1304h117v-1304h338v1304h117v-1304h228v-105h-228v-215h228v-104h-228v-216h228v-98h-228v-240h-117v240h-338v-240h-117v240h-332v-240h-123v240h-701v98h701zM1156 338v216h-332v-216h332zM1611 338
v216h-338v-216h338zM1156 658v215h-332v-215h332zM1611 658v215h-338v-215h338z" />
    <glyph glyph-name="S" unicode="S" 
d="M252 338v535h-252v105h252v529h-252v104h252v216h-252v104h252v351h117v-351h787v351h117v-351h338v351h117v-351h228v-104h-228v-216h228v-104h-228v-529h228v-105h-228v-535h228v-98h-228v-240h-117v240h-338v-240h-117v240h-787v-240h-117v240h-252v98h252zM1156 338
v535h-787v-535h787zM1611 338v535h-338v-535h338zM1156 978v529h-787v-529h787zM1611 978v529h-338v-529h338zM1156 1611v216h-787v-216h787zM1611 1611v216h-338v-216h338z" />
    <glyph glyph-name="T" unicode="T" horiz-adv-x="1749" 
d="M0 0v2282h117v-2282h-117zM449 0v2282h123v-2282h-123zM1359 0v2282h117v-2282h-117zM904 0v2282h117v-2282h-117z" />
    <glyph glyph-name="U" unicode="U" 
d="M252 338v216h-252v104h252v215h-252v105h252v215h-252v99h252v215h-252v104h252v216h-252v104h252v351h117v-351h332v351h123v-351h787v351h117v-351h228v-104h-228v-216h228v-104h-228v-215h228v-99h-228v-215h228v-105h-228v-215h228v-104h-228v-216h228v-98h-228v-240
h-117v240h-787v-240h-123v240h-332v-240h-117v240h-252v98h252zM701 338v216h-332v-216h332zM1611 338v216h-787v-216h787zM701 658v215h-332v-215h332zM1611 658v215h-787v-215h787zM701 978v215h-332v-215h332zM1611 978v215h-787v-215h787zM701 1292v215h-332v-215h332z
M1611 1292v215h-787v-215h787zM701 1611v216h-332v-216h332zM1611 1611v216h-787v-216h787z" />
    <glyph glyph-name="V" unicode="V" 
d="M252 658v849h-252v104h252v671h117v-671h332v671h123v-671h332v671h117v-671h338v671h117v-671h228v-104h-228v-849h228v-104h-228v-554h-117v554h-338v-554h-117v554h-332v-554h-123v554h-332v-554h-117v554h-252v104h252zM701 658v849h-332v-849h332zM1156 658v849
h-332v-849h332zM1611 658v849h-338v-849h338z" />
    <glyph glyph-name="W" unicode="W" 
d="M252 338v216h-252v104h252v1169h-252v104h252v351h117v-351h332v351h123v-351h332v351h117v-351h338v351h117v-351h228v-104h-228v-1169h228v-104h-228v-216h228v-98h-228v-240h-117v240h-338v-240h-117v240h-332v-240h-123v240h-332v-240h-117v240h-252v98h252zM701 338
v216h-332v-216h332zM1156 338v216h-332v-216h332zM1611 338v216h-338v-216h338zM701 658v1169h-332v-1169h332zM1156 658v1169h-332v-1169h332zM1611 658v1169h-338v-1169h338z" />
    <glyph glyph-name="X" unicode="X" 
d="M252 338v216h-252v104h252v215h-252v105h252v215h-252v99h252v990h117v-990h332v990h123v-990h332v990h117v-990h338v990h117v-990h228v-99h-228v-215h228v-105h-228v-215h228v-104h-228v-216h228v-98h-228v-240h-117v240h-338v-240h-117v240h-332v-240h-123v240h-332
v-240h-117v240h-252v98h252zM701 338v216h-332v-216h332zM1156 338v216h-332v-216h332zM1611 338v216h-338v-216h338zM701 658v215h-332v-215h332zM1156 658v215h-332v-215h332zM1611 658v215h-338v-215h338zM701 978v215h-332v-215h332zM1156 978v215h-332v-215h332z
M1611 978v215h-338v-215h338z" />
    <glyph glyph-name="Y" unicode="Y" 
d="M252 338v216h-252v104h252v535h-252v99h252v215h-252v104h252v216h-252v104h252v351h117v-351h332v351h123v-351h332v351h117v-351h338v351h117v-351h228v-104h-228v-216h228v-104h-228v-215h228v-99h-228v-535h228v-104h-228v-216h228v-98h-228v-240h-117v240h-338v-240
h-117v240h-332v-240h-123v240h-332v-240h-117v240h-252v98h252zM701 338v216h-332v-216h332zM1156 338v216h-332v-216h332zM1611 338v216h-338v-216h338zM701 658v535h-332v-535h332zM1156 658v535h-332v-535h332zM1611 658v535h-338v-535h338zM701 1292v215h-332v-215h332z
M1156 1292v215h-332v-215h332zM1611 1292v215h-338v-215h338zM701 1611v216h-332v-216h332zM1156 1611v216h-332v-216h332zM1611 1611v216h-338v-216h338z" />
    <glyph glyph-name="Z" unicode="Z" 
d="M252 338v216h-252v104h252v215h-252v105h252v215h-252v99h252v215h-252v104h252v216h-252v104h252v351h117v-351h332v351h123v-351h332v351h117v-351h338v351h117v-351h228v-104h-228v-216h228v-104h-228v-215h228v-99h-228v-215h228v-105h-228v-215h228v-104h-228v-216
h228v-98h-228v-240h-117v240h-338v-240h-117v240h-332v-240h-123v240h-332v-240h-117v240h-252v98h252zM701 338v216h-332v-216h332zM1156 338v216h-332v-216h332zM1611 338v216h-338v-216h338zM701 658v215h-332v-215h332zM1156 658v215h-332v-215h332zM1611 658v215h-338
v-215h338zM701 978v215h-332v-215h332zM1156 978v215h-332v-215h332zM1611 978v215h-338v-215h338zM701 1292v215h-332v-215h332zM1156 1292v215h-332v-215h332zM1611 1292v215h-338v-215h338zM701 1611v216h-332v-216h332zM1156 1611v216h-332v-216h332zM1611 1611v216
h-338v-216h338z" />
    <glyph glyph-name="bracketleft" unicode="[" horiz-adv-x="412" 
d="M0 -122v1867h393v-148h-213v-1572h213v-147h-393z" />
    <glyph glyph-name="backslash" unicode="\" horiz-adv-x="593" 
d="M426 0l-426 1516h139l426 -1516h-139z" />
    <glyph glyph-name="bracketright" unicode="]" horiz-adv-x="412" 
d="M393 -187h-393v147h213v1572h-213v147h393v-1866z" />
    <glyph glyph-name="asciicircum" unicode="^" horiz-adv-x="911" 
d="M197 1311h-181l353 803h147l352 -803h-180l-246 598z" />
    <glyph glyph-name="underscore" unicode="_" horiz-adv-x="1247" 
d="M0 -187v131h1188v-131h-1188z" />
    <glyph glyph-name="grave" unicode="`" horiz-adv-x="395" 
d="M377 1327h-148l-229 287h238z" />
    <glyph glyph-name="a" unicode="a" 
d="M0 781h1956v-104h-1956v104z" />
    <glyph glyph-name="b" unicode="b" 
d="M0 1611h1956v-104h-1956v104zM0 658h1956v-104h-1956v104z" />
    <glyph glyph-name="c" unicode="c" 
d="M0 1999h1956v-99h-1956v99zM0 1365h1956v-104h-1956v104zM0 412h1956v-104h-1956v104z" />
    <glyph glyph-name="d" unicode="d" 
d="M0 1999h1956v-99h-1956v99zM0 1685h1956v-104h-1956v104zM0 726h1956v-99h-1956v99zM0 412h1956v-104h-1956v104z" />
    <glyph glyph-name="e" unicode="e" 
d="M0 1937h1956v-98h-1956v98zM0 1624h1956v-105h-1956v105zM0 984h1956v-98h-1956v98zM0 664h1956v-98h-1956v98zM0 351h1956v-105h-1956v105z" />
    <glyph glyph-name="f" unicode="f" 
d="M252 1827h-252v104h252v351h117v-351h1587v-104h-1587v-1827h-117v1827z" />
    <glyph glyph-name="g" unicode="g" 
d="M701 658v1169h-701v104h701v351h123v-351h1132v-104h-1132v-1169h1132v-104h-1132v-554h-123v554h-701v104h701z" />
    <glyph glyph-name="h" unicode="h" 
d="M1611 1292v215h-1611v104h1611v216h-1611v104h1611v351h117v-351h228v-104h-228v-216h228v-104h-228v-215h228v-99h-228v-1193h-117v1193h-1611v99h1611z" />
    <glyph glyph-name="i" unicode="i" 
d="M1156 338v216h-1156v104h1156v215h-1156v105h1156v849h-1156v104h1156v351h117v-351h683v-104h-683v-849h683v-105h-683v-215h683v-104h-683v-216h683v-98h-683v-240h-117v240h-1156v98h1156z" />
    <glyph glyph-name="j" unicode="j" horiz-adv-x="800" 
d="M0 0v2282h117v-2282h-117zM449 0v2282h123v-2282h-123z" />
    <glyph glyph-name="k" unicode="k" 
d="M701 338v216h-701v104h701v215h-701v105h701v215h-701v99h701v215h-701v104h701v216h-701v104h701v351h123v-351h1132v-104h-1132v-216h1132v-104h-1132v-215h1132v-99h-1132v-215h1132v-105h-1132v-215h1132v-104h-1132v-216h1132v-98h-1132v-240h-123v240h-701v98h701z
" />
    <glyph glyph-name="l" unicode="l" 
d="M252 338v1489h-252v104h252v351h117v-351h1242v351h117v-351h228v-104h-228v-1489h228v-98h-228v-240h-117v240h-1242v-240h-117v240h-252v98h252zM1611 338v1489h-1242v-1489h1242z" />
    <glyph glyph-name="m" unicode="m" 
d="M252 338v1169h-252v104h252v216h-252v104h252v351h117v-351h332v351h123v-351h1132v-104h-1132v-216h1132v-104h-1132v-1169h1132v-98h-1132v-240h-123v240h-332v-240h-117v240h-252v98h252zM701 338v1169h-332v-1169h332zM701 1827h-332v-216h332v216z" />
    <glyph glyph-name="n" unicode="n" 
d="M701 338v216h-701v104h701v215h-701v105h701v215h-701v99h701v990h123v-990h332v990h117v-990h683v-99h-683v-215h683v-105h-683v-215h683v-104h-683v-216h683v-98h-683v-240h-117v240h-332v-240h-123v240h-701v98h701zM1156 338v216h-332v-216h332zM1156 658v215h-332
v-215h332zM1156 978v215h-332v-215h332z" />
    <glyph glyph-name="o" unicode="o" 
d="M252 338v535h-252v105h252v215h-252v99h252v215h-252v104h252v216h-252v104h252v351h117v-351h787v351h117v-351h683v-104h-683v-216h683v-104h-683v-215h683v-99h-683v-215h683v-105h-683v-535h683v-98h-683v-240h-117v240h-787v-240h-117v240h-252v98h252zM1156 338
v535h-787v-535h787zM1156 978v215h-787v-215h787zM1156 1292v215h-787v-215h787zM1156 1611v216h-787v-216h787z" />
    <glyph glyph-name="p" unicode="p" 
d="M1611 240h-787v-240h-123v240h-332v-240h-117v240h-252v98h252v1944h117v-1944h332v1944h123v-1944h787v1944h117v-1944h228v-98h-228v-240h-117v240z" />
    <glyph glyph-name="q" unicode="q" 
d="M252 1611v216h-252v104h252v351h117v-351h332v351h123v-351h332v351h117v-351h683v-104h-683v-216h683v-104h-683v-1507h-117v1507h-332v-1507h-123v1507h-332v-1507h-117v1507h-252v104h252zM701 1611v216h-332v-216h332zM1156 1611v216h-332v-216h332z" />
    <glyph glyph-name="r" unicode="r" 
d="M701 338v216h-701v104h701v215h-701v105h701v1304h123v-1304h332v1304h117v-1304h338v1304h117v-1304h228v-105h-228v-215h228v-104h-228v-216h228v-98h-228v-240h-117v240h-338v-240h-117v240h-332v-240h-123v240h-701v98h701zM1156 338v216h-332v-216h332zM1611 338
v216h-338v-216h338zM1156 658v215h-332v-215h332zM1611 658v215h-338v-215h338z" />
    <glyph glyph-name="s" unicode="s" 
d="M252 338v535h-252v105h252v529h-252v104h252v216h-252v104h252v351h117v-351h787v351h117v-351h338v351h117v-351h228v-104h-228v-216h228v-104h-228v-529h228v-105h-228v-535h228v-98h-228v-240h-117v240h-338v-240h-117v240h-787v-240h-117v240h-252v98h252zM1156 338
v535h-787v-535h787zM1611 338v535h-338v-535h338zM1156 978v529h-787v-529h787zM1611 978v529h-338v-529h338zM1156 1611v216h-787v-216h787zM1611 1611v216h-338v-216h338z" />
    <glyph glyph-name="t" unicode="t" horiz-adv-x="1649" 
d="M0 0v2282h117v-2282h-117zM449 0v2282h123v-2282h-123zM1359 0v2282h117v-2282h-117zM904 0v2282h117v-2282h-117z" />
    <glyph glyph-name="u" unicode="u" 
d="M252 338v216h-252v104h252v215h-252v105h252v215h-252v99h252v215h-252v104h252v216h-252v104h252v351h117v-351h332v351h123v-351h787v351h117v-351h228v-104h-228v-216h228v-104h-228v-215h228v-99h-228v-215h228v-105h-228v-215h228v-104h-228v-216h228v-98h-228v-240
h-117v240h-787v-240h-123v240h-332v-240h-117v240h-252v98h252zM701 338v216h-332v-216h332zM1611 338v216h-787v-216h787zM701 658v215h-332v-215h332zM1611 658v215h-787v-215h787zM701 978v215h-332v-215h332zM1611 978v215h-787v-215h787zM701 1292v215h-332v-215h332z
M1611 1292v215h-787v-215h787zM701 1611v216h-332v-216h332zM1611 1611v216h-787v-216h787z" />
    <glyph glyph-name="v" unicode="v" 
d="M252 658v849h-252v104h252v671h117v-671h332v671h123v-671h332v671h117v-671h338v671h117v-671h228v-104h-228v-849h228v-104h-228v-554h-117v554h-338v-554h-117v554h-332v-554h-123v554h-332v-554h-117v554h-252v104h252zM701 658v849h-332v-849h332zM1156 658v849
h-332v-849h332zM1611 658v849h-338v-849h338z" />
    <glyph glyph-name="w" unicode="w" 
d="M252 338v216h-252v104h252v1169h-252v104h252v351h117v-351h332v351h123v-351h332v351h117v-351h338v351h117v-351h228v-104h-228v-1169h228v-104h-228v-216h228v-98h-228v-240h-117v240h-338v-240h-117v240h-332v-240h-123v240h-332v-240h-117v240h-252v98h252zM701 338
v216h-332v-216h332zM1156 338v216h-332v-216h332zM1611 338v216h-338v-216h338zM701 658v1169h-332v-1169h332zM1156 658v1169h-332v-1169h332zM1611 658v1169h-338v-1169h338z" />
    <glyph glyph-name="x" unicode="x" 
d="M252 338v216h-252v104h252v215h-252v105h252v215h-252v99h252v990h117v-990h332v990h123v-990h332v990h117v-990h338v990h117v-990h228v-99h-228v-215h228v-105h-228v-215h228v-104h-228v-216h228v-98h-228v-240h-117v240h-338v-240h-117v240h-332v-240h-123v240h-332
v-240h-117v240h-252v98h252zM701 338v216h-332v-216h332zM1156 338v216h-332v-216h332zM1611 338v216h-338v-216h338zM701 658v215h-332v-215h332zM1156 658v215h-332v-215h332zM1611 658v215h-338v-215h338zM701 978v215h-332v-215h332zM1156 978v215h-332v-215h332z
M1611 978v215h-338v-215h338z" />
    <glyph glyph-name="y" unicode="y" 
d="M252 338v216h-252v104h252v535h-252v99h252v215h-252v104h252v216h-252v104h252v351h117v-351h332v351h123v-351h332v351h117v-351h338v351h117v-351h228v-104h-228v-216h228v-104h-228v-215h228v-99h-228v-535h228v-104h-228v-216h228v-98h-228v-240h-117v240h-338v-240
h-117v240h-332v-240h-123v240h-332v-240h-117v240h-252v98h252zM701 338v216h-332v-216h332zM1156 338v216h-332v-216h332zM1611 338v216h-338v-216h338zM701 658v535h-332v-535h332zM1156 658v535h-332v-535h332zM1611 658v535h-338v-535h338zM701 1292v215h-332v-215h332z
M1156 1292v215h-332v-215h332zM1611 1292v215h-338v-215h338zM701 1611v216h-332v-216h332zM1156 1611v216h-332v-216h332zM1611 1611v216h-338v-216h338z" />
    <glyph glyph-name="z" unicode="z" horiz-adv-x="2147" 
d="M189 254v161h-189v79h189v161h-189v78h189v162h-189v74h189v161h-189v79h189v161h-189v78h189v263h88v-263h249v263h92v-263h249v263h88v-263h254v263h87v-263h171v-78h-171v-161h171v-79h-171v-161h171v-74h-171v-162h171v-78h-171v-161h171v-79h-171v-161h171v-74h-171
v-180h-87v180h-254v-180h-88v180h-249v-180h-92v180h-249v-180h-88v180h-189v74h189zM526 254v161h-249v-161h249zM867 254v161h-249v-161h249zM1209 254v161h-254v-161h254zM526 494v161h-249v-161h249zM867 494v161h-249v-161h249zM1209 494v161h-254v-161h254zM526 733
v162h-249v-162h249zM867 733v162h-249v-162h249zM1209 733v162h-254v-162h254zM526 969v161h-249v-161h249zM867 969v161h-249v-161h249zM1209 969v161h-254v-161h254zM526 1209v161h-249v-161h249zM867 1209v161h-249v-161h249zM1209 1209v161h-254v-161h254z" />
    <glyph glyph-name="braceleft" unicode="{" horiz-adv-x="601" 
d="M0 918c45.333 0 86.3301 13.3311 122.997 39.998c34 26 55.667 61.667 65 107c4 24 7.83301 55.167 11.5 93.5s5.5 86.5 5.5 144.5c0 125.333 2.66699 199 8 221c0 44 11 87.667 33 131c20 42 39 69.333 57 82c24.667 24 54.667 40.333 90 49
c16.667 5.33301 57.667 8 123 8h57v-156h-24c-75.333 0 -121.666 -13.667 -138.999 -41c-22 -21.333 -33 -75.666 -33 -162.999c0 -167.333 -5.66699 -276.666 -17 -327.999c-7.33301 -64 -26.333 -121.333 -57 -172c-39.333 -39.333 -85.666 -72 -138.999 -98
c68.667 -30.667 120.334 -77.334 155.001 -140.001c38.667 -61.333 58 -165 58 -311v-155v-74c8 -53.333 21.667 -86.333 41 -99c24 -16 67.667 -24 131 -24h24v-155h-57c-28.667 0 -55 0.833008 -79 2.5s-44 6.5 -60 14.5c-38.667 8 -74.334 32.333 -107.001 73
c-25.333 33.333 -41.666 76.666 -48.999 129.999c-4 24 -7.66699 58 -11 102s-5 94.667 -5 152c0 61.333 -1.83301 112.833 -5.5 154.5s-7.5 74.834 -11.5 99.501c-9.33301 44.667 -31 80.334 -65 107.001c-38 27.333 -79 41 -123 41v164z" />
    <glyph glyph-name="bar" unicode="|" horiz-adv-x="163" 
d="M0 0v1925h156v-1925h-156z" />
    <glyph glyph-name="braceright" unicode="}" horiz-adv-x="601" 
d="M573 852l-0.000976562 -164c-46.667 0 -87.334 -13.667 -122.001 -41c-35.333 -26 -57.333 -61.333 -66 -106c-4 -24.667 -7.66699 -56.167 -11 -94.5s-5 -86.166 -5 -143.499c0 -53.333 -0.5 -98.5 -1.5 -135.5s-3.5 -65.5 -7.5 -85.5
c0 -28.667 -3.33301 -53.334 -10 -74.001s-14 -39.334 -22 -56.001c-23.333 -44 -42.666 -71.333 -57.999 -82c-23.333 -23.333 -53.333 -39.666 -90 -48.999c-12 -4 -29.833 -6.33301 -53.5 -7s-49.5 -1 -77.5 -1h-49v155h25c72.667 0 119 13.333 139 40
c22 22.667 33 77.334 33 164.001c0 82 1.66699 149.5 5 202.5s7 92.167 11 117.5c8 76.667 27 134 57 172c28.667 42.667 75.334 78 140.001 106c-78 42.667 -132.667 92 -164 148c-32.667 56 -49 157 -49 303v158.5v78.5c-11.333 48.667 -25 78.667 -41 90
c-24.667 16.667 -68.334 25 -131.001 25h-25v156h49c76.667 0 126 -5.66699 148 -17c36.667 -7.33301 72 -32 106 -74c24.667 -32.667 41 -76.334 49 -131.001c4 -24.667 7.83301 -57.834 11.5 -99.501s5.5 -93.167 5.5 -154.5c0 -62 1.66699 -113.333 5 -154s7 -71 11 -91
c6 -39.333 28 -77.666 66 -114.999c34.667 -27.333 75.334 -41 122.001 -41v0z" />
    <glyph glyph-name="asciitilde" unicode="~" horiz-adv-x="1066" 
d="M0 1458l-0.00195312 205.001c66 82 159 123 279 123c40.667 0 81.334 -8.33301 122.001 -25c35.333 -7.33301 98.333 -29 189 -65c24 -8.66699 44.667 -16.667 62 -24s32 -13 44 -17c8 0 17.833 -1.33301 29.5 -4s23.834 -4 36.501 -4c42 0 85.667 13.667 131 41
c48 23.333 89 56 123 98v-213c-20.667 -20.667 -41.334 -37.834 -62.001 -51.501l-61 -38.5c-48.667 -16.667 -98 -25 -148 -25c-34.667 0 -72.667 5.66699 -114 17c-33.333 6 -90.666 27.667 -171.999 65c-41.333 16 -78.833 29.5 -112.5 40.5s-64.5 16.5 -92.5 16.5
c-32.667 0 -71 -10.667 -115 -32c-36.667 -15.333 -83 -51 -139 -107v0z" />
    <glyph glyph-name="sterling" unicode="&#xa3;" horiz-adv-x="1101" 
d="M369 836l311.005 0.000976562v-148h-287c16.667 -24 25 -54 25 -90c0 -46 -13.667 -106 -41 -180c-16.667 -33.333 -36 -66.333 -58 -99s-49 -65.334 -81 -98.001c24 8 48.333 12.833 73 14.5s49.334 2.5 74.001 2.5c52 0 112 -8.33301 180 -25
c125.333 -27.333 204.666 -41 237.999 -41c24 0 52.167 5.5 84.5 16.5s66.833 24.5 103.5 40.5l58 -163c-50 -22 -96.667 -38.667 -140 -50c-42.667 -10.667 -75.334 -16 -98.001 -16c-16.667 -0 -31.834 1.33301 -45.501 4s-28.5 4 -44.5 4c-8 4 -22.333 8.83301 -43 14.5
s-47.334 14.5 -80.001 26.5c-37.333 8 -66.833 15.5 -88.5 22.5s-38.5 10.5 -50.5 10.5c-16.667 5.33301 -46.667 8 -90 8c-47.333 0 -99.333 -8 -156 -24c-24.667 -8.66699 -49.334 -17.834 -74.001 -27.501s-49 -22.5 -73 -38.5l-66 172c56 32 110.667 84 164 156
c43.333 68.667 65 147.667 65 237c0 20 -1.66699 40.333 -5 61s-7 41.334 -11 62.001h-197v148h156c-12.667 36 -23 68.167 -31 96.5s-14 50.5 -18 66.5c0 16 -1.33301 32.333 -4 49s-4 33.334 -4 50.001c0 140.667 51.667 249.667 155 327c75.333 60.667 176.333 91 303 91
c123.333 0 221.666 -33 294.999 -99c82 -65.333 131.333 -158 148 -278l-180 -25c-8.66699 73.333 -39 136.333 -91 189c-43.333 43.333 -103.333 65 -180 65c-67.333 0 -127.333 -21.667 -180 -65c-49.333 -50.667 -74 -108.334 -74 -173.001
c0 -81.333 19.333 -179.333 58 -294z" />
    <glyph glyph-name="currency" unicode="&#xa4;" horiz-adv-x="1032" 
d="M229 868c0 -70.667 24.667 -130.667 74 -180s109.333 -74 180 -74c76.667 0 139.667 24.667 189 74c48.667 48.667 73 108.667 73 180c0 77.333 -24.333 140.333 -73 189s-111.667 73 -189 73c-71.333 0 -131.333 -24.333 -180 -73
c-49.333 -49.333 -74 -112.333 -74 -189v0zM139 1106l-139 139l115 115l139 -139c64 48.667 143.333 73 238 73c84 0 163 -24.333 237 -73l131 139l123 -115l-139 -139c43.333 -78.667 65 -158 65 -238c0 -83.333 -21.667 -159.666 -65 -228.999l139 -139l-123 -123
l-131 147c-74 -48.667 -153 -73 -237 -73c-94.667 0 -174 24.333 -238 73l-139 -147l-115 123l139 139c-48.667 65.333 -73 141.666 -73 228.999c0 84.667 24.333 164 73 238v0z" />
    <glyph glyph-name="glyph1" horiz-adv-x="0" 
 />
    <glyph glyph-name="glyph2" horiz-adv-x="2048" 
 />
  </font>
</defs>
</svg>
